<?xml version="1.0" encoding="UTF-8"?>
<svg version="1.1" xmlns="http://www.w3.org/2000/svg" width="500" height="500">
<path d="M0 0 C4.07003634 3.59575027 8.06184592 7.26053199 12 11 C12.53415527 11.50547363 13.06831055 12.01094727 13.61865234 12.53173828 C21.90969743 20.43348616 29.24244409 28.75397841 36 38 C36.45616699 38.62245605 36.91233398 39.24491211 37.38232422 39.88623047 C44.80584577 50.11598348 51.1636468 60.79579676 57 72 C57.3515918 72.66515625 57.70318359 73.3303125 58.06542969 74.015625 C74.35961605 105.20067066 81.47763793 140.64622493 81.3125 175.625 C81.31034485 176.45349457 81.3081897 177.28198914 81.30596924 178.1355896 C81.06066685 237.164845 58.17696679 293.60598 17 336 C16.45085937 336.57492187 15.90171875 337.14984375 15.3359375 337.7421875 C7.13066654 346.32212837 -1.4187179 353.9884953 -11 361 C-12.04671875 361.76828125 -13.0934375 362.5365625 -14.171875 363.328125 C-63.28762472 398.27117082 -125.84841459 414.05659766 -185.640625 404.03515625 C-231.24546546 395.49908295 -273.80635318 376.17411499 -307.32861328 343.62011719 C-308.48200391 342.50210664 -309.64229247 341.39118375 -310.80810547 340.28613281 C-320.66102702 330.94368546 -329.10234239 321.03704962 -337 310 C-337.43618652 309.40316406 -337.87237305 308.80632812 -338.32177734 308.19140625 C-360.12671342 278.20005558 -373.29193287 241.6408564 -378 205 C-378.0942627 204.30946533 -378.18852539 203.61893066 -378.28564453 202.9074707 C-384.83201353 148.16507019 -371.13612245 89.92267822 -339 45 C-338.24203125 43.93136719 -337.4840625 42.86273438 -336.703125 41.76171875 C-334.52821079 38.78856475 -332.29105524 35.88445034 -330 33 C-329.21753906 32.01257813 -328.43507813 31.02515625 -327.62890625 30.0078125 C-315.78335059 15.39929076 -302.26126309 2.00571857 -287 -9 C-285.9584375 -9.763125 -284.916875 -10.52625 -283.84375 -11.3125 C-210.89832015 -63.31320247 -114.07929805 -68.11617777 0 0 Z " fill="#FEFEFE" transform="translate(399,74)"/>
<path d="M0 0 C0.74362793 0.00725098 1.48725586 0.01450195 2.25341797 0.02197266 C22.4955588 0.32906608 39.22413816 7.97795289 53.2421875 22.2890625 C67.55077635 38.32893968 74.66949667 60.19784251 82 80 C82.3290332 80.88864746 82.65806641 81.77729492 82.99707031 82.69287109 C88.07138924 96.51437596 92.21438567 110.5552996 96.09936523 124.75 C97.51832083 129.88758338 98.98994005 134.99788393 100.57299805 140.0871582 C104.92878856 154.10006693 108.69952243 168.18558517 112.1875 182.4375 C112.69929968 184.5099065 113.2116686 186.58217251 113.72460938 188.65429688 C114.70989774 192.63740533 115.69187198 196.62130502 116.67089844 200.60595703 C117.81749515 205.26818999 118.98147085 209.92584769 120.15234375 214.58203125 C121.95746954 221.79002777 123.68760215 229.01359309 125.375 236.25 C125.67172607 237.52125732 125.96845215 238.79251465 126.27416992 240.10229492 C129.13548606 252.41799685 131.79947062 264.77458781 134.38623047 277.15087891 C134.76926512 278.92892759 135.17136334 280.70310393 135.60205078 282.47021484 C136.87832681 287.71234594 137.31739297 292.60856256 137.25 298 C137.24323242 298.78890625 137.23646484 299.5778125 137.22949219 300.390625 C137.13296906 305.81387775 136.76511415 310.8357803 135 316 C134.74347656 316.804375 134.48695313 317.60875 134.22265625 318.4375 C129.99923462 330.32833514 122.23144225 337.8007392 111.11328125 343.47265625 C99.34490028 348.74919831 87.5481862 349.33131142 74.85522461 349.26074219 C72.56922797 349.25003152 70.28401968 349.26069272 67.99804688 349.2734375 C50.94570844 349.28955861 33.0198336 347.90048097 19.76953125 335.99609375 C10.33713168 326.10357713 3 307.81390517 3 294 C-6.57 294 -16.14 294 -26 294 C-26 296.64 -26 299.28 -26 302 C-26.4791856 304.69307663 -26.99861669 307.24154737 -27.6875 309.875 C-27.86901611 310.57189941 -28.05053223 311.26879883 -28.23754883 311.98681641 C-31.58526451 324.25466624 -37.89766724 334.39091087 -48.8125 341.375 C-65.93799934 350.67320056 -85.03481415 350.47357031 -104 350 C-104.74733398 349.98598145 -105.49466797 349.97196289 -106.26464844 349.95751953 C-121.53658089 349.61853156 -135.48957036 346.68029726 -147.05859375 336.12109375 C-157.45532082 325.05361009 -159.77484001 311.81735951 -159.3671875 297.109375 C-158.41252056 279.60037701 -152.62939423 262.09598094 -148.29907227 245.16455078 C-146.18957404 236.89963903 -144.19592092 228.62511964 -142.41062927 220.28335571 C-141.30677833 215.1758682 -139.99058075 210.15106477 -138.5625 205.125 C-138.32724609 204.29411865 -138.09199219 203.4632373 -137.84960938 202.60717773 C-137.66205078 201.95177002 -137.47449219 201.2963623 -137.28125 200.62109375 C-135.93404685 195.83546076 -134.74390856 191.01625442 -133.5625 186.1875 C-130.97586411 175.70967038 -128.040974 165.35407945 -125 155 C-124.60634046 153.65383925 -124.2127925 152.30764587 -123.81933594 150.96142578 C-87.49691408 26.80809194 -87.49691408 26.80809194 -54.8671875 8.21484375 C-47.49229952 4.59848302 -40.07331077 2.4277229 -32 1 C-30.45119141 0.71962891 -30.45119141 0.71962891 -28.87109375 0.43359375 C-19.32440591 -0.63571236 -9.59235358 -0.13591433 0 0 Z " fill="#FE78AA" transform="translate(261,75)"/>
<path d="M0 0 C0.74362793 0.00725098 1.48725586 0.01450195 2.25341797 0.02197266 C22.4955588 0.32906608 39.22413816 7.97795289 53.2421875 22.2890625 C67.55077635 38.32893968 74.66949667 60.19784251 82 80 C82.3290332 80.88864746 82.65806641 81.77729492 82.99707031 82.69287109 C88.07138924 96.51437596 92.21438567 110.5552996 96.09936523 124.75 C97.51832083 129.88758338 98.98994005 134.99788393 100.57299805 140.0871582 C104.92878856 154.10006693 108.69952243 168.18558517 112.1875 182.4375 C112.69929968 184.5099065 113.2116686 186.58217251 113.72460938 188.65429688 C114.70989774 192.63740533 115.69187198 196.62130502 116.67089844 200.60595703 C117.81749515 205.26818999 118.98147085 209.92584769 120.15234375 214.58203125 C121.95746954 221.79002777 123.68760215 229.01359309 125.375 236.25 C125.67172607 237.52125732 125.96845215 238.79251465 126.27416992 240.10229492 C129.13548606 252.41799685 131.79947062 264.77458781 134.38623047 277.15087891 C134.76926512 278.92892759 135.17136334 280.70310393 135.60205078 282.47021484 C136.87832681 287.71234594 137.31739297 292.60856256 137.25 298 C137.24323242 298.78890625 137.23646484 299.5778125 137.22949219 300.390625 C137.13296906 305.81387775 136.76511415 310.8357803 135 316 C134.74347656 316.804375 134.48695313 317.60875 134.22265625 318.4375 C129.99923462 330.32833514 122.23144225 337.8007392 111.11328125 343.47265625 C99.34490028 348.74919831 87.5481862 349.33131142 74.85522461 349.26074219 C72.56922797 349.25003152 70.28401968 349.26069272 67.99804688 349.2734375 C50.94570844 349.28955861 33.0198336 347.90048097 19.76953125 335.99609375 C10.33713168 326.10357713 3 307.81390517 3 294 C-6.57 294 -16.14 294 -26 294 C-26 296.64 -26 299.28 -26 302 C-26.4791856 304.69307663 -26.99861669 307.24154737 -27.6875 309.875 C-27.86901611 310.57189941 -28.05053223 311.26879883 -28.23754883 311.98681641 C-31.58526451 324.25466624 -37.89766724 334.39091087 -48.8125 341.375 C-65.93799934 350.67320056 -85.03481415 350.47357031 -104 350 C-104.74733398 349.98598145 -105.49466797 349.97196289 -106.26464844 349.95751953 C-121.53658089 349.61853156 -135.48957036 346.68029726 -147.05859375 336.12109375 C-157.45532082 325.05361009 -159.77484001 311.81735951 -159.3671875 297.109375 C-158.41252056 279.60037701 -152.62939423 262.09598094 -148.29907227 245.16455078 C-146.18957404 236.89963903 -144.19592092 228.62511964 -142.41062927 220.28335571 C-141.30677833 215.1758682 -139.99058075 210.15106477 -138.5625 205.125 C-138.32724609 204.29411865 -138.09199219 203.4632373 -137.84960938 202.60717773 C-137.66205078 201.95177002 -137.47449219 201.2963623 -137.28125 200.62109375 C-135.93404685 195.83546076 -134.74390856 191.01625442 -133.5625 186.1875 C-130.97586411 175.70967038 -128.040974 165.35407945 -125 155 C-124.60634046 153.65383925 -124.2127925 152.30764587 -123.81933594 150.96142578 C-87.49691408 26.80809194 -87.49691408 26.80809194 -54.8671875 8.21484375 C-47.49229952 4.59848302 -40.07331077 2.4277229 -32 1 C-30.45119141 0.71962891 -30.45119141 0.71962891 -28.87109375 0.43359375 C-19.32440591 -0.63571236 -9.59235358 -0.13591433 0 0 Z M-63.94921875 29.3671875 C-84.66836149 55.96662027 -95.01082089 93.87753057 -104 126 C-104.2779541 126.99225586 -104.5559082 127.98451172 -104.84228516 129.00683594 C-106.05484524 133.34297724 -107.26592887 137.67949736 -108.46801758 142.01855469 C-110.01896227 147.59492726 -111.64343597 153.12240092 -113.4375 158.625 C-116.79046668 169.07393902 -119.3661152 179.74392563 -122.06088257 190.37672424 C-123.52210322 196.1377457 -125.00213399 201.89376638 -126.48762512 207.64857483 C-144.54885513 258.67894568 -144.54885513 258.67894568 -142.5 309.4375 C-136.63066726 316.26924065 -129.63570645 317.71247398 -120.921875 318.68359375 C-91.40070157 321.63397268 -91.40070157 321.63397268 -64.578125 311.890625 C-58.52287734 304.6363184 -57.73154016 297.09187865 -56.4375 287.9375 C-56.05255921 285.25694714 -55.65281435 282.57981062 -55.24609375 279.90234375 C-55.07779053 278.72148193 -54.9094873 277.54062012 -54.73608398 276.32397461 C-53.7431671 271.84020564 -52.26656965 268.26656965 -49 265 C-45.61566826 264.09669547 -42.41342028 263.870175 -38.921875 263.85473633 C-37.93735352 263.84835648 -36.95283203 263.84197662 -35.93847656 263.83540344 C-34.36018066 263.83373421 -34.36018066 263.83373421 -32.75 263.83203125 C-31.11369629 263.82703865 -31.11369629 263.82703865 -29.44433594 263.82194519 C-27.14128032 263.81688975 -24.83821741 263.81453644 -22.53515625 263.81469727 C-19.01289845 263.81250802 -15.49095254 263.79432984 -11.96875 263.77539062 C-9.72916774 263.77245698 -7.48958399 263.77047199 -5.25 263.76953125 C-4.19780273 263.76234573 -3.14560547 263.75516022 -2.06152344 263.74775696 C-0.58474121 263.7523719 -0.58474121 263.7523719 0.921875 263.75708008 C1.78393555 263.75565506 2.64599609 263.75423004 3.53417969 263.75276184 C6.34313813 264.03440512 8.46700311 264.76691117 11 266 C11.96875 267.71484375 11.96875 267.71484375 12.5 269.9375 C12.72945312 270.82824219 12.95890625 271.71898437 13.1953125 272.63671875 C13.46085938 273.74660156 13.72640625 274.85648437 14 276 C17.56333196 295.64180693 17.56333196 295.64180693 26.875 312.1875 C44.80999422 322.58979665 70.41190914 320.44396481 90.1796875 316.33984375 C96.07503758 314.73917748 100.1088987 312.63403395 103.75 307.5625 C109.53368684 295.70594197 105.2759 280.87130701 102.375 268.75 C102.00530282 267.15624173 101.63699451 265.56216071 101.27001953 263.96777344 C100.53573462 260.78776515 99.79326964 257.60986062 99.04296875 254.43359375 C98.12252889 250.53324033 97.22752743 246.62759642 96.34375 242.71875 C93.76502446 231.33548259 91.03847249 219.99561528 88.17700195 208.68017578 C86.789747 203.19007237 85.44566053 197.69341323 84.15869141 192.17895508 C79.43674984 171.95117835 73.85019309 151.92827831 68 132 C67.74814941 131.14003418 67.49629883 130.28006836 67.23681641 129.39404297 C59.60229634 103.46918241 51.7154086 77.41249968 40 53 C39.46463623 51.88359131 39.46463623 51.88359131 38.91845703 50.74462891 C32.24666337 37.06572833 24.04999914 24.0242245 9.125 18.625 C-11.95914654 11.71708874 -48.01574241 12.06068615 -63.94921875 29.3671875 Z " fill="#600268" transform="translate(261,75)"/>
<path d="M0 0 C2.26648335 0.01607262 4.53117794 0.00006648 6.79760742 -0.01904297 C25.04767665 -0.04483584 41.69505059 3.33144467 55.01049805 16.55126953 C86.38749366 51.7180266 97.04089393 112.46090564 108.4128418 156.87939453 C109.66204553 161.75192182 110.95647167 166.61179259 112.25512695 171.47134399 C121.1778172 204.87665679 129.1257986 238.46559876 135.8347168 272.39111328 C136.13829102 273.91865234 136.13829102 273.91865234 136.44799805 275.47705078 C138.08535519 287.81511569 138.11427857 300.66482231 130.7722168 311.14111328 C123.11260383 320.2108642 112.96793968 323.42309842 101.48706055 324.78955078 C97.9341569 325.08595988 94.39774085 325.26785191 90.8347168 325.39111328 C89.09254883 325.45298828 89.09254883 325.45298828 87.31518555 325.51611328 C79.99105456 325.64307547 72.75413528 325.27115331 65.4597168 324.64111328 C64.63971191 324.57947998 63.81970703 324.51784668 62.97485352 324.4543457 C53.75857988 323.55658407 45.5563094 319.79071854 38.8347168 313.39111328 C34.72038343 307.49712613 32.54986024 301.08616097 30.7097168 294.20361328 C30.47124023 293.35992187 30.23276367 292.51623047 29.98706055 291.64697266 C27.9453801 284.26933278 26.44515847 276.90650777 24.8347168 269.39111328 C9.3247168 269.72111328 -6.1852832 270.05111328 -22.1652832 270.39111328 C-24.7238893 279.67141751 -24.7238893 279.67141751 -26.0402832 288.82861328 C-27.52056111 300.67083656 -31.63241331 310.28165193 -41.00512695 317.88330078 C-50.23346499 324.26198842 -62.03179145 325.52606814 -72.9777832 325.59423828 C-73.70916504 325.59993835 -74.44054687 325.60563843 -75.1940918 325.61151123 C-76.73704611 325.62090648 -78.28001999 325.62747326 -79.82299805 325.63134766 C-82.1314817 325.64097235 -84.43904206 325.6720134 -86.74731445 325.70361328 C-100.08611035 325.79969544 -114.42967866 325.29724214 -125.1652832 316.39111328 C-131.90820519 309.46168494 -134.74575168 301.45448199 -134.6652832 291.89111328 C-134.66028809 291.07852051 -134.65529297 290.26592773 -134.65014648 289.42871094 C-133.8759414 261.08212619 -123.05758887 231.7570175 -116.20629883 204.31494141 C-115.51010743 201.5257654 -114.81618583 198.73603987 -114.12426758 195.94580078 C-110.25829535 180.35856276 -106.30404044 164.81747483 -101.75946045 149.41088867 C-100.96756084 146.71899943 -100.20083398 144.02015292 -99.43481445 141.32080078 C-69.79025646 38.0584252 -69.79025646 38.0584252 -46.1652832 14.39111328 C-45.30290039 13.51132813 -45.30290039 13.51132813 -44.4230957 12.61376953 C-32.5147759 1.41766981 -15.5545428 -0.13078089 0 0 Z M-46.11450195 22.75830078 C-66.83364469 49.35773355 -77.17610409 87.26864385 -86.1652832 119.39111328 C-86.4432373 120.38336914 -86.72119141 121.375625 -87.00756836 122.39794922 C-88.22012845 126.73409052 -89.43121207 131.07061065 -90.63330078 135.40966797 C-92.18424547 140.98604054 -93.80871917 146.5135142 -95.6027832 152.01611328 C-98.95574988 162.4650523 -101.53139841 173.13503891 -104.22616577 183.76783752 C-105.68738643 189.52885898 -107.16741719 195.28487966 -108.65290833 201.03968811 C-126.71413833 252.07005897 -126.71413833 252.07005897 -124.6652832 302.82861328 C-118.79595047 309.66035393 -111.80098965 311.10358726 -103.0871582 312.07470703 C-73.56598477 315.02508596 -73.56598477 315.02508596 -46.7434082 305.28173828 C-40.68816054 298.02743168 -39.89682337 290.48299193 -38.6027832 281.32861328 C-38.21784242 278.64806042 -37.81809755 275.9709239 -37.41137695 273.29345703 C-37.24307373 272.11259521 -37.07477051 270.9317334 -36.90136719 269.71508789 C-35.9084503 265.23131892 -34.43185286 261.65768294 -31.1652832 258.39111328 C-27.78095146 257.48780875 -24.57870348 257.26128828 -21.0871582 257.24584961 C-20.10263672 257.23946976 -19.11811523 257.2330899 -18.10375977 257.22651672 C-16.52546387 257.22484749 -16.52546387 257.22484749 -14.9152832 257.22314453 C-13.27897949 257.21815193 -13.27897949 257.21815193 -11.60961914 257.21305847 C-9.30656353 257.20800303 -7.00350061 257.20564972 -4.70043945 257.20581055 C-1.17818165 257.2036213 2.34376426 257.18544312 5.8659668 257.16650391 C8.10554906 257.16357026 10.34513281 257.16158527 12.5847168 257.16064453 C13.63691406 257.15345901 14.68911133 257.1462735 15.77319336 257.13887024 C17.24997559 257.14348518 17.24997559 257.14348518 18.7565918 257.14819336 C19.61865234 257.14676834 20.48071289 257.14534332 21.36889648 257.14387512 C24.17785492 257.4255184 26.3017199 258.15802445 28.8347168 259.39111328 C29.8034668 261.10595703 29.8034668 261.10595703 30.3347168 263.32861328 C30.56416992 264.21935547 30.79362305 265.11009766 31.0300293 266.02783203 C31.29557617 267.13771484 31.56112305 268.24759766 31.8347168 269.39111328 C35.39804875 289.03292021 35.39804875 289.03292021 44.7097168 305.57861328 C62.64471101 315.98090993 88.24662594 313.83507809 108.0144043 309.73095703 C113.90975438 308.13029076 117.9436155 306.02514723 121.5847168 300.95361328 C127.36840364 289.09705525 123.1106168 274.26242029 120.2097168 262.14111328 C119.84001962 260.54735502 119.47171131 258.95327399 119.10473633 257.35888672 C118.37045141 254.17887843 117.62798644 251.0009739 116.87768555 247.82470703 C115.95724569 243.92435361 115.06224422 240.01870971 114.1784668 236.10986328 C111.59974125 224.72659587 108.87318928 213.38672856 106.01171875 202.07128906 C104.62446379 196.58118565 103.28037732 191.08452651 101.9934082 185.57006836 C97.27146663 165.34229163 91.68490988 145.31939159 85.8347168 125.39111328 C85.58286621 124.53114746 85.33101562 123.67118164 85.0715332 122.78515625 C77.43701314 96.86029569 69.5501254 70.80361296 57.8347168 46.39111328 C57.29935303 45.27470459 57.29935303 45.27470459 56.75317383 44.13574219 C50.08138017 30.45684162 41.88471594 17.41533778 26.9597168 12.01611328 C5.87557026 5.10820202 -30.18102562 5.45179943 -46.11450195 22.75830078 Z " fill="#7B0184" transform="translate(243.165283203125,81.60888671875)"/>
<path d="M0 0 C1.87481584 1.63590126 3.64037345 3.29028355 5.33203125 5.11328125 C1.95613119 5.11328125 0.89980081 4.44180878 -1.98046875 2.80078125 C-19.28480233 -5.91327514 -42.90828497 -5.10016449 -61.3125 -0.1796875 C-74.57612314 4.28226867 -81.79355524 15.47570458 -87.82324219 27.39746094 C-95.42124644 42.80775644 -101.12501291 58.87444581 -106.66796875 75.11328125 C-106.97750488 76.01159668 -107.28704102 76.90991211 -107.60595703 77.83544922 C-110.78254106 87.06493629 -113.68751398 96.35308602 -116.39453125 105.73046875 C-117.4970364 109.54709735 -118.64236335 113.34963018 -119.79663086 117.15087891 C-125.41896746 135.70072745 -130.54801269 154.3527744 -135.18554688 173.1730957 C-136.72731724 179.41423412 -138.3297394 185.62241096 -140.10546875 191.80078125 C-143.87913678 205.05760749 -146.99454416 218.49589323 -150.14929199 231.91082764 C-150.66764167 234.11189237 -151.18967976 236.31206117 -151.71191406 238.51220703 C-152.55825313 242.08894775 -153.38554589 245.66966194 -154.19976807 249.25384521 C-154.65212081 251.23149531 -155.11853422 253.20591306 -155.58544922 255.18017578 C-157.94067397 265.7213606 -160.08460599 276.31367025 -154.66796875 286.11328125 C-154.17296875 287.59828125 -154.17296875 287.59828125 -153.66796875 289.11328125 C-149.11773807 291.60856904 -143.72294226 292.19062589 -138.66796875 293.11328125 C-138.66796875 293.44328125 -138.66796875 293.77328125 -138.66796875 294.11328125 C-146.09562016 294.51842587 -152.10681883 293.32910786 -158.48046875 289.36328125 C-163.15537497 284.55480628 -165.14924151 280.2396412 -165.20176697 273.63050842 C-165.18159012 272.85009689 -165.16141327 272.06968536 -165.140625 271.265625 C-165.12781998 270.43336899 -165.11501495 269.60111298 -165.1018219 268.74363708 C-164.84096826 260.11676513 -163.15476879 252.02858854 -161.10546875 243.67578125 C-160.71252831 242.00796461 -160.32097949 240.33981963 -159.93066406 238.67138672 C-158.54742616 232.80935264 -157.1087806 226.96138427 -155.66796875 221.11328125 C-155.06201134 218.64339202 -154.45605433 216.17350269 -153.85009766 213.70361328 C-139.37652895 154.7888236 -139.37652895 154.7888236 -132.16796875 131.61328125 C-130.10951751 124.92912174 -128.11911969 118.23950593 -126.29296875 111.48828125 C-99.85345901 14.89003899 -99.85345901 14.89003899 -75.5390625 -1.3046875 C-56.48269091 -12.01016149 -18.22269178 -12.88661805 0 0 Z " fill="#FBED7A" transform="translate(280.66796875,98.88671875)"/>
<path d="M0 0 C0.66 0 1.32 0 2 0 C5.18263372 6.58843993 6.80095685 13.46769092 8.5 20.5625 C8.65340851 21.20150238 8.80681702 21.84050476 8.96487427 22.49887085 C12.92377311 39.10461861 16.76750551 56.82994646 15 74 C13 76 13 76 10.29443359 76.22705078 C9.17375488 76.21657715 8.05307617 76.20610352 6.8984375 76.1953125 C5.68671875 76.18886719 4.475 76.18242187 3.2265625 76.17578125 C1.95554688 76.15902344 0.68453125 76.14226562 -0.625 76.125 C-2.543125 76.11146484 -2.543125 76.11146484 -4.5 76.09765625 C-7.66685167 76.07402303 -10.83333424 76.04107629 -14 76 C-14.1448693 68.59467466 -13.80985114 61.40892414 -12.875 54.0625 C-12.74593262 53.04760498 -12.61686523 52.03270996 -12.48388672 50.98706055 C-11.35881971 42.6936197 -9.83812657 34.50335213 -8.125 26.3125 C-7.77671143 24.61395874 -7.77671143 24.61395874 -7.42138672 22.88110352 C-5.68628287 14.92261271 -3.11487213 7.52129546 0 0 Z " fill="#7B0284" transform="translate(241,191)"/>
<path d="M0 0 C2.39916992 0.13842773 2.39916992 0.13842773 5 1 C9.75246019 7.68154385 11.41704309 16.56502998 13.1875 24.4375 C13.43435547 25.47970703 13.68121094 26.52191406 13.93554688 27.59570312 C15.58474297 34.68944526 16.88274231 41.80475598 18 49 C18.1127124 49.70020264 18.2254248 50.40040527 18.34155273 51.12182617 C22.05330564 74.55907229 22.05330564 74.55907229 18.2890625 80.8671875 C13.09739314 84.23375694 7.98384679 83.64529725 1.9375 83.5 C0.16149414 83.50386719 0.16149414 83.50386719 -1.65039062 83.5078125 C-11.5287871 83.395876 -11.5287871 83.395876 -15 80 C-15 79.34 -15 78.68 -15 78 C-14.21761963 77.97494385 -13.43523926 77.9498877 -12.62915039 77.92407227 C-9.10675051 77.80850212 -5.5846444 77.68560051 -2.0625 77.5625 C-0.83080078 77.52318359 0.40089844 77.48386719 1.66992188 77.44335938 C2.83974609 77.40146484 4.00957031 77.35957031 5.21484375 77.31640625 C6.29886475 77.27974854 7.38288574 77.24309082 8.49975586 77.20532227 C10.939263 77.27635735 10.939263 77.27635735 12 76 C14.24089143 51.09304284 7.28373814 24.32347582 -1 1 C-0.67 0.67 -0.34 0.34 0 0 Z " fill="#FBE97B" transform="translate(243,189)"/>
<path d="M0 0 C2.1875 -0.3125 2.1875 -0.3125 5 0 C10.12206584 3.99225708 11.27657209 8.02595116 12.71875 14.0625 C12.94397339 14.93140869 13.16919678 15.80031738 13.40124512 16.69555664 C14.3591224 20.39323859 15.27649772 24.1006731 16.19775391 27.80761719 C16.87833134 30.52134219 17.57926414 33.22924833 18.28125 35.9375 C18.48036987 36.77095947 18.67948975 37.60441895 18.88464355 38.46313477 C20.22576845 43.62661147 21.78798792 46.4714719 26 50 C27 51 28 52 29 53 C23.31812385 52.45886894 19.22131813 50.57541601 15.44702148 46.19946289 C9.58107474 37.28326343 8.05140269 24.67914319 5.55664062 14.45117188 C5.26853516 13.30326172 4.98042969 12.15535156 4.68359375 10.97265625 C4.43150146 9.94406494 4.17940918 8.91547363 3.91967773 7.85571289 C2.96971022 4.90594649 1.6945777 2.58383798 0 0 Z " fill="#FBEA7A" transform="translate(270,338)"/>
<path d="M0 0 C0.66 0 1.32 0 2 0 C2.50828443 3.35296491 3.00511457 6.70753343 3.5 10.0625 C3.64308594 11.00544922 3.78617188 11.94839844 3.93359375 12.91992188 C4.67809139 18.00732242 5.17113566 22.8587994 5 28 C2.36 28 -0.28 28 -3 28 C-3.17743987 21.67131138 -2.50712088 15.74233484 -1.5 9.5 C-1.35691406 8.5821875 -1.21382812 7.664375 -1.06640625 6.71875 C-0.7163295 4.47825881 -0.3607651 2.23879053 0 0 Z " fill="#600069" transform="translate(244,230)"/>
</svg>
